<svg width="1920" height="329" viewBox="0 0 1920 329" fill="none" xmlns="http://www.w3.org/2000/svg">
<g clip-path="url(#clip0_1401_76)">
<rect width="1920" height="329" rx="24" fill="#FFF8DC"/>
<circle cx="353.5" cy="-14.5" r="624" fill="#F8DE7E" stroke="#FAF0BE" stroke-width="219"/>
<path d="M728.368 115.76V129.392H750.352V142.064H728.368V156.848H753.232V170H711.952V102.608H753.232V115.76H728.368ZM760.626 143.12C760.626 137.616 761.65 132.784 763.698 128.624C765.81 124.464 768.658 121.264 772.242 119.024C775.826 116.784 779.826 115.664 784.242 115.664C787.762 115.664 790.962 116.4 793.842 117.872C796.786 119.344 799.09 121.328 800.754 123.824V98.96H817.17V170H800.754V162.32C799.218 164.88 797.01 166.928 794.13 168.464C791.314 170 788.018 170.768 784.242 170.768C779.826 170.768 775.826 169.648 772.242 167.408C768.658 165.104 765.81 161.872 763.698 157.712C761.65 153.488 760.626 148.624 760.626 143.12ZM800.754 143.216C800.754 139.12 799.602 135.888 797.298 133.52C795.058 131.152 792.306 129.968 789.042 129.968C785.778 129.968 782.994 131.152 780.69 133.52C778.45 135.824 777.33 139.024 777.33 143.12C777.33 147.216 778.45 150.48 780.69 152.912C782.994 155.28 785.778 156.464 789.042 156.464C792.306 156.464 795.058 155.28 797.298 152.912C799.602 150.544 800.754 147.312 800.754 143.216ZM837.302 110.864C834.422 110.864 832.054 110.032 830.198 108.368C828.406 106.64 827.51 104.528 827.51 102.032C827.51 99.472 828.406 97.36 830.198 95.696C832.054 93.968 834.422 93.104 837.302 93.104C840.118 93.104 842.422 93.968 844.214 95.696C846.07 97.36 846.998 99.472 846.998 102.032C846.998 104.528 846.07 106.64 844.214 108.368C842.422 110.032 840.118 110.864 837.302 110.864ZM845.462 116.432V170H829.046V116.432H845.462ZM887.214 156.08V170H878.862C872.91 170 868.27 168.56 864.942 165.68C861.614 162.736 859.95 157.968 859.95 151.376V130.064H853.422V116.432H859.95V103.376H876.366V116.432H887.118V130.064H876.366V151.568C876.366 153.168 876.75 154.32 877.518 155.024C878.286 155.728 879.566 156.08 881.358 156.08H887.214ZM920.742 170.768C915.494 170.768 910.758 169.648 906.534 167.408C902.374 165.168 899.078 161.968 896.646 157.808C894.278 153.648 893.094 148.784 893.094 143.216C893.094 137.712 894.31 132.88 896.742 128.72C899.174 124.496 902.502 121.264 906.726 119.024C910.95 116.784 915.686 115.664 920.934 115.664C926.182 115.664 930.918 116.784 935.142 119.024C939.366 121.264 942.694 124.496 945.126 128.72C947.558 132.88 948.774 137.712 948.774 143.216C948.774 148.72 947.526 153.584 945.03 157.808C942.598 161.968 939.238 165.168 934.95 167.408C930.726 169.648 925.99 170.768 920.742 170.768ZM920.742 156.56C923.878 156.56 926.534 155.408 928.71 153.104C930.95 150.8 932.07 147.504 932.07 143.216C932.07 138.928 930.982 135.632 928.806 133.328C926.694 131.024 924.07 129.872 920.934 129.872C917.734 129.872 915.078 131.024 912.966 133.328C910.854 135.568 909.798 138.864 909.798 143.216C909.798 147.504 910.822 150.8 912.87 153.104C914.982 155.408 917.606 156.56 920.742 156.56ZM973.899 125.36C975.819 122.416 978.219 120.112 981.099 118.448C983.979 116.72 987.179 115.856 990.699 115.856V133.232H986.187C982.091 133.232 979.019 134.128 976.971 135.92C974.923 137.648 973.899 140.72 973.899 145.136V170H957.483V116.432H973.899V125.36ZM1006.23 170.768C1003.35 170.768 1000.98 169.936 999.122 168.272C997.33 166.544 996.434 164.432 996.434 161.936C996.434 159.376 997.33 157.232 999.122 155.504C1000.98 153.776 1003.35 152.912 1006.23 152.912C1009.04 152.912 1011.35 153.776 1013.14 155.504C1014.99 157.232 1015.92 159.376 1015.92 161.936C1015.92 164.432 1014.99 166.544 1013.14 168.272C1011.35 169.936 1009.04 170.768 1006.23 170.768ZM1042.06 124.016C1043.66 121.52 1045.86 119.504 1048.68 117.968C1051.5 116.432 1054.79 115.664 1058.57 115.664C1062.98 115.664 1066.98 116.784 1070.57 119.024C1074.15 121.264 1076.97 124.464 1079.02 128.624C1081.13 132.784 1082.18 137.616 1082.18 143.12C1082.18 148.624 1081.13 153.488 1079.02 157.712C1076.97 161.872 1074.15 165.104 1070.57 167.408C1066.98 169.648 1062.98 170.768 1058.57 170.768C1054.86 170.768 1051.56 170 1048.68 168.464C1045.86 166.928 1043.66 164.944 1042.06 162.512V195.536H1025.64V116.432H1042.06V124.016ZM1065.48 143.12C1065.48 139.024 1064.33 135.824 1062.02 133.52C1059.78 131.152 1057 129.968 1053.67 129.968C1050.41 129.968 1047.62 131.152 1045.32 133.52C1043.08 135.888 1041.96 139.12 1041.96 143.216C1041.96 147.312 1043.08 150.544 1045.32 152.912C1047.62 155.28 1050.41 156.464 1053.67 156.464C1056.94 156.464 1059.72 155.28 1062.02 152.912C1064.33 150.48 1065.48 147.216 1065.48 143.12ZM1123.72 115.856C1129.87 115.856 1134.8 117.904 1138.51 122C1142.22 126.032 1144.08 131.6 1144.08 138.704V170H1127.76V140.912C1127.76 137.328 1126.83 134.544 1124.97 132.56C1123.12 130.576 1120.62 129.584 1117.48 129.584C1114.35 129.584 1111.85 130.576 1110 132.56C1108.14 134.544 1107.21 137.328 1107.21 140.912V170H1090.8V98.96H1107.21V123.632C1108.88 121.264 1111.15 119.376 1114.03 117.968C1116.91 116.56 1120.14 115.856 1123.72 115.856ZM1171.9 124.016C1173.5 121.52 1175.71 119.504 1178.52 117.968C1181.34 116.432 1184.64 115.664 1188.41 115.664C1192.83 115.664 1196.83 116.784 1200.41 119.024C1204 121.264 1206.81 124.464 1208.86 128.624C1210.97 132.784 1212.03 137.616 1212.03 143.12C1212.03 148.624 1210.97 153.488 1208.86 157.712C1206.81 161.872 1204 165.104 1200.41 167.408C1196.83 169.648 1192.83 170.768 1188.41 170.768C1184.7 170.768 1181.4 170 1178.52 168.464C1175.71 166.928 1173.5 164.944 1171.9 162.512V195.536H1155.48V116.432H1171.9V124.016ZM1195.32 143.12C1195.32 139.024 1194.17 135.824 1191.87 133.52C1189.63 131.152 1186.84 129.968 1183.52 129.968C1180.25 129.968 1177.47 131.152 1175.16 133.52C1172.92 135.888 1171.8 139.12 1171.8 143.216C1171.8 147.312 1172.92 150.544 1175.16 152.912C1177.47 155.28 1180.25 156.464 1183.52 156.464C1186.78 156.464 1189.56 155.28 1191.87 152.912C1194.17 150.48 1195.32 147.216 1195.32 143.12Z" fill="black"/>
<path fill-rule="evenodd" clip-rule="evenodd" d="M825.425 250.162C820.097 250.648 814.998 252.967 809.408 256.237C806.083 258.182 803.463 259.192 800.607 259.649C798.318 260.016 795.921 260.007 793.179 259.997C792.71 259.995 792.232 259.993 791.742 259.993C789.914 259.993 788.432 258.511 788.432 256.683C788.432 254.855 789.914 253.372 791.742 253.372C792.289 253.372 792.8 253.374 793.281 253.375C796.069 253.382 797.845 253.387 799.56 253.112C801.397 252.818 803.239 252.176 806.065 250.522C811.881 247.12 818.009 244.19 824.825 243.569C831.761 242.937 839.026 244.724 847.08 250.013C850.32 252.14 856.042 253.372 861.258 253.372C863.086 253.372 864.568 254.854 864.568 256.683C864.568 258.511 863.086 259.993 861.258 259.993C855.4 259.993 848.204 258.671 843.446 255.547C836.427 250.937 830.632 249.688 825.425 250.162Z" fill="black"/>
<path fill-rule="evenodd" clip-rule="evenodd" d="M825.921 212.004C828.64 212.078 831.085 213.384 833.324 214.927C835.616 216.507 837.853 218.316 838.85 220.916C839.876 223.595 839.79 226.607 838.836 229.313C837.898 231.975 835.965 234.141 833.631 235.727C831.352 237.276 828.676 238.111 825.921 238.088C823.183 238.065 820.499 237.237 818.305 235.6C816.13 233.977 814.644 231.634 813.812 229.051C812.982 226.473 812.858 223.719 813.644 221.127C814.441 218.498 816.014 216.154 818.219 214.515C820.441 212.864 823.154 211.929 825.921 212.004Z" fill="black"/>
<path d="M885.128 253C884.776 253 884.488 252.888 884.264 252.664C884.04 252.44 883.928 252.152 883.928 251.8V220.6C883.928 220.248 884.04 219.96 884.264 219.736C884.488 219.512 884.776 219.4 885.128 219.4H899.768C902.52 219.4 904.776 219.784 906.536 220.552C908.296 221.32 909.592 222.424 910.424 223.864C911.288 225.272 911.72 226.952 911.72 228.904C911.72 230.056 911.496 231.08 911.048 231.976C910.632 232.84 910.104 233.56 909.464 234.136C908.856 234.712 908.28 235.128 907.736 235.384C908.952 235.96 910.024 236.904 910.952 238.216C911.912 239.528 912.392 241.064 912.392 242.824C912.392 244.936 911.912 246.76 910.952 248.296C910.024 249.8 908.648 250.968 906.824 251.8C905.032 252.6 902.824 253 900.2 253H885.128ZM892.52 246.76H899.24C900.616 246.76 901.656 246.36 902.36 245.56C903.064 244.76 903.416 243.848 903.416 242.824C903.416 241.704 903.048 240.76 902.312 239.992C901.608 239.224 900.584 238.84 899.24 238.84H892.52V246.76ZM892.52 232.744H898.808C900.12 232.744 901.096 232.408 901.736 231.736C902.408 231.064 902.744 230.2 902.744 229.144C902.744 228.12 902.408 227.288 901.736 226.648C901.096 225.976 900.12 225.64 898.808 225.64H892.52V232.744ZM926.365 253.48C924.541 253.48 922.909 253.064 921.469 252.232C920.061 251.4 918.957 250.184 918.157 248.584C917.357 246.952 916.957 244.968 916.957 242.632V229.24C916.957 228.888 917.069 228.6 917.293 228.376C917.517 228.152 917.805 228.04 918.157 228.04H924.157C924.509 228.04 924.797 228.152 925.021 228.376C925.245 228.6 925.357 228.888 925.357 229.24V242.344C925.357 245.48 926.765 247.048 929.581 247.048C930.893 247.048 931.933 246.648 932.701 245.848C933.501 245.016 933.901 243.848 933.901 242.344V229.24C933.901 228.888 934.013 228.6 934.237 228.376C934.461 228.152 934.749 228.04 935.101 228.04H941.101C941.453 228.04 941.741 228.152 941.965 228.376C942.189 228.6 942.301 228.888 942.301 229.24V251.8C942.301 252.152 942.189 252.44 941.965 252.664C941.741 252.888 941.453 253 941.101 253H935.533C935.213 253 934.925 252.888 934.669 252.664C934.445 252.44 934.333 252.152 934.333 251.8V249.976C933.501 251.128 932.413 252.008 931.069 252.616C929.757 253.192 928.189 253.48 926.365 253.48ZM949.147 253C948.795 253 948.507 252.888 948.283 252.664C948.059 252.44 947.947 252.152 947.947 251.8V229.24C947.947 228.888 948.059 228.6 948.283 228.376C948.507 228.152 948.795 228.04 949.147 228.04H954.379C954.731 228.04 955.019 228.152 955.243 228.376C955.467 228.6 955.579 228.888 955.579 229.24V230.872C956.219 230.008 957.115 229.256 958.267 228.616C959.419 227.944 960.779 227.592 962.347 227.56C966.027 227.496 968.555 228.888 969.931 231.736C970.667 230.52 971.723 229.528 973.099 228.76C974.475 227.96 975.979 227.56 977.611 227.56C979.275 227.56 980.763 227.944 982.075 228.712C983.419 229.448 984.491 230.6 985.291 232.168C986.091 233.704 986.491 235.704 986.491 238.168V251.8C986.491 252.152 986.363 252.44 986.107 252.664C985.883 252.888 985.611 253 985.291 253H979.723C979.371 253 979.067 252.888 978.811 252.664C978.587 252.44 978.475 252.152 978.475 251.8V238.504C978.475 237.384 978.315 236.504 977.995 235.864C977.675 235.192 977.243 234.712 976.699 234.424C976.155 234.136 975.531 233.992 974.827 233.992C974.251 233.992 973.675 234.136 973.099 234.424C972.555 234.712 972.107 235.192 971.755 235.864C971.435 236.504 971.275 237.384 971.275 238.504V251.8C971.275 252.152 971.163 252.44 970.939 252.664C970.715 252.888 970.427 253 970.075 253H964.507C964.155 253 963.867 252.888 963.643 252.664C963.419 252.44 963.307 252.152 963.307 251.8V238.504C963.307 237.384 963.131 236.504 962.779 235.864C962.427 235.192 961.979 234.712 961.435 234.424C960.891 234.136 960.283 233.992 959.611 233.992C959.035 233.992 958.459 234.136 957.883 234.424C957.339 234.712 956.891 235.192 956.539 235.864C956.219 236.504 956.059 237.368 956.059 238.456V251.8C956.059 252.152 955.931 252.44 955.675 252.664C955.451 252.888 955.163 253 954.811 253H949.147ZM993.069 262.12C992.717 262.12 992.429 262.008 992.205 261.784C991.981 261.56 991.869 261.272 991.869 260.92V229.24C991.869 228.888 991.981 228.6 992.205 228.376C992.429 228.152 992.717 228.04 993.069 228.04H998.493C998.813 228.04 999.085 228.152 999.309 228.376C999.565 228.6 999.693 228.888 999.693 229.24V231.016C1000.43 230.024 1001.4 229.208 1002.62 228.568C1003.84 227.896 1005.34 227.56 1007.13 227.56C1008.73 227.56 1010.14 227.816 1011.36 228.328C1012.57 228.808 1013.61 229.528 1014.48 230.488C1015.34 231.448 1016.01 232.616 1016.49 233.992C1017 235.368 1017.29 236.952 1017.36 238.744C1017.39 239.384 1017.4 239.976 1017.4 240.52C1017.4 241.064 1017.39 241.656 1017.36 242.296C1017.29 244.024 1017.02 245.576 1016.54 246.952C1016.06 248.328 1015.39 249.496 1014.52 250.456C1013.66 251.416 1012.6 252.168 1011.36 252.712C1010.14 253.224 1008.73 253.48 1007.13 253.48C1005.56 253.48 1004.19 253.208 1003 252.664C1001.85 252.088 1000.89 251.288 1000.12 250.264V260.92C1000.12 261.272 1000.01 261.56 999.789 261.784C999.565 262.008 999.277 262.12 998.925 262.12H993.069ZM1004.54 247.048C1005.63 247.048 1006.48 246.824 1007.08 246.376C1007.69 245.928 1008.12 245.32 1008.38 244.552C1008.67 243.784 1008.84 242.936 1008.91 242.008C1008.97 241.016 1008.97 240.024 1008.91 239.032C1008.84 238.104 1008.67 237.256 1008.38 236.488C1008.12 235.72 1007.69 235.112 1007.08 234.664C1006.48 234.216 1005.63 233.992 1004.54 233.992C1003.48 233.992 1002.64 234.232 1002 234.712C1001.36 235.16 1000.89 235.752 1000.6 236.488C1000.32 237.224 1000.16 238.024 1000.12 238.888C1000.09 239.496 1000.08 240.088 1000.08 240.664C1000.08 241.24 1000.09 241.848 1000.12 242.488C1000.16 243.288 1000.33 244.04 1000.65 244.744C1000.97 245.416 1001.45 245.976 1002.09 246.424C1002.73 246.84 1003.55 247.048 1004.54 247.048ZM1036.45 253.48C1033.41 253.48 1030.81 252.984 1028.63 251.992C1026.49 251 1024.81 249.544 1023.59 247.624C1022.41 245.704 1021.75 243.32 1021.62 240.472C1021.59 239.16 1021.57 237.752 1021.57 236.248C1021.57 234.744 1021.59 233.304 1021.62 231.928C1021.75 229.144 1022.42 226.792 1023.64 224.872C1024.85 222.92 1026.55 221.448 1028.73 220.456C1030.9 219.432 1033.48 218.92 1036.45 218.92C1038.57 218.92 1040.52 219.192 1042.31 219.736C1044.1 220.248 1045.67 221.016 1047.01 222.04C1048.36 223.032 1049.4 224.248 1050.13 225.688C1050.9 227.096 1051.3 228.696 1051.33 230.488C1051.37 230.776 1051.27 231.016 1051.05 231.208C1050.85 231.4 1050.61 231.496 1050.33 231.496H1043.85C1043.43 231.496 1043.11 231.416 1042.89 231.256C1042.66 231.064 1042.47 230.728 1042.31 230.248C1041.86 228.552 1041.13 227.4 1040.1 226.792C1039.11 226.152 1037.88 225.832 1036.41 225.832C1034.65 225.832 1033.25 226.328 1032.23 227.32C1031.21 228.28 1030.65 229.896 1030.55 232.168C1030.45 234.792 1030.45 237.48 1030.55 240.232C1030.65 242.504 1031.21 244.136 1032.23 245.128C1033.25 246.088 1034.65 246.568 1036.41 246.568C1037.88 246.568 1039.13 246.248 1040.15 245.608C1041.17 244.968 1041.89 243.816 1042.31 242.152C1042.44 241.672 1042.61 241.352 1042.84 241.192C1043.09 241 1043.43 240.904 1043.85 240.904H1050.33C1050.61 240.904 1050.85 241 1051.05 241.192C1051.27 241.384 1051.37 241.624 1051.33 241.912C1051.3 243.704 1050.9 245.32 1050.13 246.76C1049.4 248.168 1048.36 249.384 1047.01 250.408C1045.67 251.4 1044.1 252.168 1042.31 252.712C1040.52 253.224 1038.57 253.48 1036.45 253.48ZM1067.66 253.48C1064.97 253.48 1062.7 253.048 1060.85 252.184C1059.02 251.32 1057.61 250.088 1056.62 248.488C1055.66 246.856 1055.12 244.92 1054.99 242.68C1054.96 242.04 1054.94 241.32 1054.94 240.52C1054.94 239.688 1054.96 238.968 1054.99 238.36C1055.12 236.088 1055.69 234.152 1056.72 232.552C1057.74 230.952 1059.17 229.72 1060.99 228.856C1062.85 227.992 1065.07 227.56 1067.66 227.56C1070.29 227.56 1072.51 227.992 1074.33 228.856C1076.19 229.72 1077.63 230.952 1078.65 232.552C1079.68 234.152 1080.25 236.088 1080.38 238.36C1080.41 238.968 1080.43 239.688 1080.43 240.52C1080.43 241.32 1080.41 242.04 1080.38 242.68C1080.25 244.92 1079.69 246.856 1078.7 248.488C1077.74 250.088 1076.33 251.32 1074.48 252.184C1072.65 253.048 1070.38 253.48 1067.66 253.48ZM1067.66 247.624C1069.1 247.624 1070.14 247.192 1070.78 246.328C1071.45 245.464 1071.84 244.168 1071.93 242.44C1071.97 241.96 1071.98 241.32 1071.98 240.52C1071.98 239.72 1071.97 239.08 1071.93 238.6C1071.84 236.904 1071.45 235.624 1070.78 234.76C1070.14 233.864 1069.1 233.416 1067.66 233.416C1066.25 233.416 1065.21 233.864 1064.54 234.76C1063.87 235.624 1063.5 236.904 1063.44 238.6C1063.41 239.08 1063.39 239.72 1063.39 240.52C1063.39 241.32 1063.41 241.96 1063.44 242.44C1063.5 244.168 1063.87 245.464 1064.54 246.328C1065.21 247.192 1066.25 247.624 1067.66 247.624ZM1086.35 253C1086 253 1085.71 252.888 1085.49 252.664C1085.26 252.44 1085.15 252.152 1085.15 251.8V229.24C1085.15 228.92 1085.26 228.648 1085.49 228.424C1085.71 228.168 1086 228.04 1086.35 228.04H1091.87C1092.22 228.04 1092.51 228.168 1092.73 228.424C1092.96 228.648 1093.07 228.92 1093.07 229.24V231.16C1093.93 230.168 1094.96 229.4 1096.14 228.856C1097.36 228.312 1098.72 228.04 1100.22 228.04H1102.33C1102.65 228.04 1102.93 228.152 1103.15 228.376C1103.41 228.6 1103.53 228.888 1103.53 229.24V234.184C1103.53 234.504 1103.41 234.792 1103.15 235.048C1102.93 235.272 1102.65 235.384 1102.33 235.384H1097.68C1096.37 235.384 1095.34 235.752 1094.61 236.488C1093.9 237.192 1093.55 238.2 1093.55 239.512V251.8C1093.55 252.152 1093.42 252.44 1093.17 252.664C1092.94 252.888 1092.65 253 1092.3 253H1086.35ZM1118.28 253.48C1114.5 253.48 1111.5 252.456 1109.26 250.408C1107.02 248.36 1105.85 245.32 1105.75 241.288C1105.75 241.064 1105.75 240.776 1105.75 240.424C1105.75 240.072 1105.75 239.8 1105.75 239.608C1105.85 237.08 1106.41 234.92 1107.43 233.128C1108.49 231.304 1109.93 229.928 1111.75 229C1113.61 228.04 1115.77 227.56 1118.23 227.56C1121.05 227.56 1123.37 228.12 1125.19 229.24C1127.05 230.36 1128.44 231.88 1129.37 233.8C1130.3 235.72 1130.76 237.912 1130.76 240.376V241.528C1130.76 241.88 1130.63 242.168 1130.38 242.392C1130.15 242.616 1129.88 242.728 1129.56 242.728H1114.2C1114.2 242.76 1114.2 242.808 1114.2 242.872C1114.2 242.936 1114.2 243 1114.2 243.064C1114.23 243.992 1114.39 244.84 1114.68 245.608C1114.97 246.376 1115.42 246.984 1116.02 247.432C1116.63 247.88 1117.37 248.104 1118.23 248.104C1118.87 248.104 1119.4 248.008 1119.82 247.816C1120.26 247.592 1120.63 247.352 1120.92 247.096C1121.21 246.808 1121.43 246.568 1121.59 246.376C1121.88 246.056 1122.1 245.864 1122.26 245.8C1122.46 245.704 1122.74 245.656 1123.13 245.656H1129.08C1129.4 245.656 1129.66 245.752 1129.85 245.944C1130.07 246.104 1130.17 246.344 1130.14 246.664C1130.1 247.208 1129.83 247.864 1129.32 248.632C1128.81 249.4 1128.06 250.168 1127.06 250.936C1126.1 251.672 1124.89 252.28 1123.42 252.76C1121.94 253.24 1120.23 253.48 1118.28 253.48ZM1114.2 237.976H1122.31V237.88C1122.31 236.856 1122.15 235.96 1121.83 235.192C1121.54 234.424 1121.08 233.832 1120.44 233.416C1119.83 233 1119.1 232.792 1118.23 232.792C1117.37 232.792 1116.63 233 1116.02 233.416C1115.45 233.832 1115 234.424 1114.68 235.192C1114.36 235.96 1114.2 236.856 1114.2 237.88V237.976Z" fill="black"/>
</g>
<defs>
<clipPath id="clip0_1401_76">
<rect width="1920" height="329" rx="24" fill="white"/>
</clipPath>
</defs>
</svg>
