<svg width="775" height="377" viewBox="0 0 775 377" fill="none" xmlns="http://www.w3.org/2000/svg">
<g clip-path="url(#clip0_1401_76)">
<rect width="775" height="377" rx="24" fill="#FFF8DC"/>
<circle cx="12" cy="-23" r="295" fill="#F8DE7E" stroke="#FAF0BE" stroke-width="50"/>
<path d="M77.824 132.68V150.856H107.136V167.752H77.824V187.464H110.976V205H55.936V115.144H110.976V132.68H77.824ZM120.834 169.16C120.834 161.821 122.199 155.379 124.93 149.832C127.746 144.285 131.543 140.019 136.322 137.032C141.101 134.045 146.434 132.552 152.322 132.552C157.015 132.552 161.282 133.533 165.122 135.496C169.047 137.459 172.119 140.104 174.338 143.432V110.28H196.226V205H174.338V194.76C172.29 198.173 169.346 200.904 165.506 202.952C161.751 205 157.357 206.024 152.322 206.024C146.434 206.024 141.101 204.531 136.322 201.544C131.543 198.472 127.746 194.163 124.93 188.616C122.199 182.984 120.834 176.499 120.834 169.16ZM174.338 169.288C174.338 163.827 172.802 159.517 169.73 156.36C166.743 153.203 163.074 151.624 158.722 151.624C154.37 151.624 150.658 153.203 147.586 156.36C144.599 159.432 143.106 163.699 143.106 169.16C143.106 174.621 144.599 178.973 147.586 182.216C150.658 185.373 154.37 186.952 158.722 186.952C163.074 186.952 166.743 185.373 169.73 182.216C172.802 179.059 174.338 174.749 174.338 169.288ZM223.069 126.152C219.229 126.152 216.072 125.043 213.597 122.824C211.208 120.52 210.013 117.704 210.013 114.376C210.013 110.963 211.208 108.147 213.597 105.928C216.072 103.624 219.229 102.472 223.069 102.472C226.824 102.472 229.896 103.624 232.285 105.928C234.76 108.147 235.997 110.963 235.997 114.376C235.997 117.704 234.76 120.52 232.285 122.824C229.896 125.043 226.824 126.152 223.069 126.152ZM233.949 133.576V205H212.061V133.576H233.949ZM289.619 186.44V205H278.483C270.547 205 264.36 203.08 259.923 199.24C255.486 195.315 253.267 188.957 253.267 180.168V151.752H244.563V133.576H253.267V116.168H275.155V133.576H289.491V151.752H275.155V180.424C275.155 182.557 275.667 184.093 276.691 185.032C277.715 185.971 279.422 186.44 281.811 186.44H289.619ZM334.323 206.024C327.326 206.024 321.011 204.531 315.379 201.544C309.832 198.557 305.438 194.291 302.195 188.744C299.038 183.197 297.459 176.712 297.459 169.288C297.459 161.949 299.08 155.507 302.323 149.96C305.566 144.328 310.003 140.019 315.635 137.032C321.267 134.045 327.582 132.552 334.579 132.552C341.576 132.552 347.891 134.045 353.523 137.032C359.155 140.019 363.592 144.328 366.835 149.96C370.078 155.507 371.699 161.949 371.699 169.288C371.699 176.627 370.035 183.112 366.707 188.744C363.464 194.291 358.984 198.557 353.267 201.544C347.635 204.531 341.32 206.024 334.323 206.024ZM334.323 187.08C338.504 187.08 342.046 185.544 344.947 182.472C347.934 179.4 349.427 175.005 349.427 169.288C349.427 163.571 347.976 159.176 345.075 156.104C342.259 153.032 338.76 151.496 334.579 151.496C330.312 151.496 326.771 153.032 323.955 156.104C321.139 159.091 319.731 163.485 319.731 169.288C319.731 175.005 321.096 179.4 323.827 182.472C326.643 185.544 330.142 187.08 334.323 187.08ZM405.199 145.48C407.759 141.555 410.959 138.483 414.799 136.264C418.639 133.96 422.906 132.808 427.599 132.808V155.976H421.583C416.122 155.976 412.026 157.171 409.295 159.56C406.564 161.864 405.199 165.96 405.199 171.848V205H383.311V133.576H405.199V145.48ZM448.301 206.024C444.461 206.024 441.304 204.915 438.829 202.696C436.44 200.392 435.245 197.576 435.245 194.248C435.245 190.835 436.44 187.976 438.829 185.672C441.304 183.368 444.461 182.216 448.301 182.216C452.056 182.216 455.128 183.368 457.517 185.672C459.992 187.976 461.229 190.835 461.229 194.248C461.229 197.576 459.992 200.392 457.517 202.696C455.128 204.915 452.056 206.024 448.301 206.024ZM496.074 143.688C498.207 140.36 501.151 137.672 504.906 135.624C508.661 133.576 513.055 132.552 518.09 132.552C523.978 132.552 529.311 134.045 534.09 137.032C538.869 140.019 542.623 144.285 545.354 149.832C548.17 155.379 549.578 161.821 549.578 169.16C549.578 176.499 548.17 182.984 545.354 188.616C542.623 194.163 538.869 198.472 534.09 201.544C529.311 204.531 523.978 206.024 518.09 206.024C513.141 206.024 508.746 205 504.906 202.952C501.151 200.904 498.207 198.259 496.074 195.016V239.048H474.186V133.576H496.074V143.688ZM527.306 169.16C527.306 163.699 525.77 159.432 522.698 156.36C519.711 153.203 515.999 151.624 511.562 151.624C507.21 151.624 503.498 153.203 500.426 156.36C497.439 159.517 495.946 163.827 495.946 169.288C495.946 174.749 497.439 179.059 500.426 182.216C503.498 185.373 507.21 186.952 511.562 186.952C515.914 186.952 519.626 185.373 522.698 182.216C525.77 178.973 527.306 174.621 527.306 169.16ZM604.965 132.808C613.157 132.808 619.728 135.539 624.677 141C629.626 146.376 632.101 153.8 632.101 163.272V205H610.341V166.216C610.341 161.437 609.104 157.725 606.629 155.08C604.154 152.435 600.826 151.112 596.645 151.112C592.464 151.112 589.136 152.435 586.661 155.08C584.186 157.725 582.949 161.437 582.949 166.216V205H561.061V110.28H582.949V143.176C585.168 140.019 588.197 137.501 592.037 135.624C595.877 133.747 600.186 132.808 604.965 132.808ZM669.199 143.688C671.332 140.36 674.276 137.672 678.031 135.624C681.786 133.576 686.18 132.552 691.215 132.552C697.103 132.552 702.436 134.045 707.215 137.032C711.994 140.019 715.748 144.285 718.479 149.832C721.295 155.379 722.703 161.821 722.703 169.16C722.703 176.499 721.295 182.984 718.479 188.616C715.748 194.163 711.994 198.472 707.215 201.544C702.436 204.531 697.103 206.024 691.215 206.024C686.266 206.024 681.871 205 678.031 202.952C674.276 200.904 671.332 198.259 669.199 195.016V239.048H647.311V133.576H669.199V143.688ZM700.431 169.16C700.431 163.699 698.895 159.432 695.823 156.36C692.836 153.203 689.124 151.624 684.687 151.624C680.335 151.624 676.623 153.203 673.551 156.36C670.564 159.517 669.071 163.827 669.071 169.288C669.071 174.749 670.564 179.059 673.551 182.216C676.623 185.373 680.335 186.952 684.687 186.952C689.039 186.952 692.751 185.373 695.823 182.216C698.895 178.973 700.431 174.621 700.431 169.16Z" fill="black"/>
<path fill-rule="evenodd" clip-rule="evenodd" d="M84.9933 298.162C79.6649 298.648 74.5662 300.967 68.9765 304.237C65.6513 306.182 63.0307 307.192 60.1754 307.649C57.8857 308.016 55.4892 308.007 52.7468 307.997C52.2784 307.995 51.8 307.993 51.3103 307.993C49.4821 307.993 48 306.511 48 304.683C48 302.855 49.4821 301.372 51.3103 301.372C51.8566 301.372 52.3679 301.374 52.8491 301.375C55.637 301.382 57.4127 301.387 59.128 301.112C60.9647 300.818 62.8068 300.176 65.6334 298.522C71.4494 295.12 77.5775 292.19 84.3925 291.569C91.3291 290.937 98.5944 292.724 106.648 298.013C109.888 300.14 115.61 301.372 120.826 301.372C122.654 301.372 124.136 302.854 124.136 304.683C124.136 306.511 122.654 307.993 120.826 307.993C114.968 307.993 107.772 306.671 103.014 303.547C95.995 298.937 90.2001 297.688 84.9933 298.162Z" fill="black"/>
<path fill-rule="evenodd" clip-rule="evenodd" d="M85.4893 260.004C88.2078 260.078 90.6529 261.384 92.892 262.927C95.1844 264.507 97.4214 266.316 98.4176 268.916C99.4442 271.595 99.3575 274.607 98.404 277.313C97.4659 279.975 95.5333 282.141 93.1985 283.727C90.9198 285.276 88.2441 286.111 85.4893 286.088C82.7514 286.065 80.067 285.237 77.8727 283.6C75.6979 281.977 74.2116 279.634 73.3797 277.051C72.5495 274.473 72.4257 271.719 73.2115 269.127C74.0087 266.498 75.5818 264.154 77.7871 262.515C80.009 260.864 82.7222 259.929 85.4893 260.004Z" fill="black"/>
<path d="M144.696 301C144.344 301 144.056 300.888 143.832 300.664C143.608 300.44 143.496 300.152 143.496 299.8V268.6C143.496 268.248 143.608 267.96 143.832 267.736C144.056 267.512 144.344 267.4 144.696 267.4H159.336C162.088 267.4 164.344 267.784 166.104 268.552C167.864 269.32 169.16 270.424 169.992 271.864C170.856 273.272 171.288 274.952 171.288 276.904C171.288 278.056 171.064 279.08 170.616 279.976C170.2 280.84 169.672 281.56 169.032 282.136C168.424 282.712 167.848 283.128 167.304 283.384C168.52 283.96 169.592 284.904 170.52 286.216C171.48 287.528 171.96 289.064 171.96 290.824C171.96 292.936 171.48 294.76 170.52 296.296C169.592 297.8 168.216 298.968 166.392 299.8C164.6 300.6 162.392 301 159.768 301H144.696ZM152.088 294.76H158.808C160.184 294.76 161.224 294.36 161.928 293.56C162.632 292.76 162.984 291.848 162.984 290.824C162.984 289.704 162.616 288.76 161.88 287.992C161.176 287.224 160.152 286.84 158.808 286.84H152.088V294.76ZM152.088 280.744H158.376C159.688 280.744 160.664 280.408 161.304 279.736C161.976 279.064 162.312 278.2 162.312 277.144C162.312 276.12 161.976 275.288 161.304 274.648C160.664 273.976 159.688 273.64 158.376 273.64H152.088V280.744ZM185.933 301.48C184.109 301.48 182.477 301.064 181.037 300.232C179.629 299.4 178.525 298.184 177.725 296.584C176.925 294.952 176.525 292.968 176.525 290.632V277.24C176.525 276.888 176.637 276.6 176.861 276.376C177.085 276.152 177.373 276.04 177.725 276.04H183.725C184.077 276.04 184.365 276.152 184.589 276.376C184.813 276.6 184.925 276.888 184.925 277.24V290.344C184.925 293.48 186.333 295.048 189.149 295.048C190.461 295.048 191.501 294.648 192.269 293.848C193.069 293.016 193.469 291.848 193.469 290.344V277.24C193.469 276.888 193.581 276.6 193.805 276.376C194.029 276.152 194.317 276.04 194.669 276.04H200.669C201.021 276.04 201.309 276.152 201.533 276.376C201.757 276.6 201.869 276.888 201.869 277.24V299.8C201.869 300.152 201.757 300.44 201.533 300.664C201.309 300.888 201.021 301 200.669 301H195.101C194.781 301 194.493 300.888 194.237 300.664C194.013 300.44 193.901 300.152 193.901 299.8V297.976C193.069 299.128 191.981 300.008 190.637 300.616C189.325 301.192 187.757 301.48 185.933 301.48ZM208.715 301C208.363 301 208.075 300.888 207.851 300.664C207.627 300.44 207.515 300.152 207.515 299.8V277.24C207.515 276.888 207.627 276.6 207.851 276.376C208.075 276.152 208.363 276.04 208.715 276.04H213.947C214.299 276.04 214.587 276.152 214.811 276.376C215.035 276.6 215.147 276.888 215.147 277.24V278.872C215.787 278.008 216.683 277.256 217.835 276.616C218.987 275.944 220.347 275.592 221.915 275.56C225.595 275.496 228.123 276.888 229.499 279.736C230.235 278.52 231.291 277.528 232.667 276.76C234.043 275.96 235.547 275.56 237.179 275.56C238.843 275.56 240.331 275.944 241.643 276.712C242.987 277.448 244.059 278.6 244.859 280.168C245.659 281.704 246.059 283.704 246.059 286.168V299.8C246.059 300.152 245.931 300.44 245.675 300.664C245.451 300.888 245.179 301 244.859 301H239.291C238.939 301 238.635 300.888 238.379 300.664C238.155 300.44 238.043 300.152 238.043 299.8V286.504C238.043 285.384 237.883 284.504 237.563 283.864C237.243 283.192 236.811 282.712 236.267 282.424C235.723 282.136 235.099 281.992 234.395 281.992C233.819 281.992 233.243 282.136 232.667 282.424C232.123 282.712 231.675 283.192 231.323 283.864C231.003 284.504 230.843 285.384 230.843 286.504V299.8C230.843 300.152 230.731 300.44 230.507 300.664C230.283 300.888 229.995 301 229.643 301H224.075C223.723 301 223.435 300.888 223.211 300.664C222.987 300.44 222.875 300.152 222.875 299.8V286.504C222.875 285.384 222.699 284.504 222.347 283.864C221.995 283.192 221.547 282.712 221.003 282.424C220.459 282.136 219.851 281.992 219.179 281.992C218.603 281.992 218.027 282.136 217.451 282.424C216.907 282.712 216.459 283.192 216.107 283.864C215.787 284.504 215.627 285.368 215.627 286.456V299.8C215.627 300.152 215.499 300.44 215.243 300.664C215.019 300.888 214.731 301 214.379 301H208.715ZM252.637 310.12C252.285 310.12 251.997 310.008 251.773 309.784C251.549 309.56 251.437 309.272 251.437 308.92V277.24C251.437 276.888 251.549 276.6 251.773 276.376C251.997 276.152 252.285 276.04 252.637 276.04H258.061C258.381 276.04 258.653 276.152 258.877 276.376C259.133 276.6 259.261 276.888 259.261 277.24V279.016C259.997 278.024 260.973 277.208 262.189 276.568C263.405 275.896 264.909 275.56 266.701 275.56C268.301 275.56 269.709 275.816 270.925 276.328C272.141 276.808 273.181 277.528 274.045 278.488C274.909 279.448 275.581 280.616 276.061 281.992C276.573 283.368 276.861 284.952 276.925 286.744C276.957 287.384 276.973 287.976 276.973 288.52C276.973 289.064 276.957 289.656 276.925 290.296C276.861 292.024 276.589 293.576 276.109 294.952C275.629 296.328 274.957 297.496 274.093 298.456C273.229 299.416 272.173 300.168 270.925 300.712C269.709 301.224 268.301 301.48 266.701 301.48C265.133 301.48 263.757 301.208 262.573 300.664C261.421 300.088 260.461 299.288 259.693 298.264V308.92C259.693 309.272 259.581 309.56 259.357 309.784C259.133 310.008 258.845 310.12 258.493 310.12H252.637ZM264.109 295.048C265.197 295.048 266.045 294.824 266.653 294.376C267.261 293.928 267.693 293.32 267.949 292.552C268.237 291.784 268.413 290.936 268.477 290.008C268.541 289.016 268.541 288.024 268.477 287.032C268.413 286.104 268.237 285.256 267.949 284.488C267.693 283.72 267.261 283.112 266.653 282.664C266.045 282.216 265.197 281.992 264.109 281.992C263.053 281.992 262.205 282.232 261.565 282.712C260.925 283.16 260.461 283.752 260.173 284.488C259.885 285.224 259.725 286.024 259.693 286.888C259.661 287.496 259.645 288.088 259.645 288.664C259.645 289.24 259.661 289.848 259.693 290.488C259.725 291.288 259.901 292.04 260.221 292.744C260.541 293.416 261.021 293.976 261.661 294.424C262.301 294.84 263.117 295.048 264.109 295.048ZM296.022 301.48C292.982 301.48 290.374 300.984 288.198 299.992C286.054 299 284.374 297.544 283.158 295.624C281.974 293.704 281.318 291.32 281.19 288.472C281.158 287.16 281.142 285.752 281.142 284.248C281.142 282.744 281.158 281.304 281.19 279.928C281.318 277.144 281.99 274.792 283.206 272.872C284.422 270.92 286.118 269.448 288.294 268.456C290.47 267.432 293.046 266.92 296.022 266.92C298.134 266.92 300.086 267.192 301.878 267.736C303.67 268.248 305.238 269.016 306.582 270.04C307.926 271.032 308.966 272.248 309.702 273.688C310.47 275.096 310.87 276.696 310.902 278.488C310.934 278.776 310.838 279.016 310.614 279.208C310.422 279.4 310.182 279.496 309.894 279.496H303.414C302.998 279.496 302.678 279.416 302.454 279.256C302.23 279.064 302.038 278.728 301.878 278.248C301.43 276.552 300.694 275.4 299.67 274.792C298.678 274.152 297.446 273.832 295.974 273.832C294.214 273.832 292.822 274.328 291.798 275.32C290.774 276.28 290.214 277.896 290.118 280.168C290.022 282.792 290.022 285.48 290.118 288.232C290.214 290.504 290.774 292.136 291.798 293.128C292.822 294.088 294.214 294.568 295.974 294.568C297.446 294.568 298.694 294.248 299.718 293.608C300.742 292.968 301.462 291.816 301.878 290.152C302.006 289.672 302.182 289.352 302.406 289.192C302.662 289 302.998 288.904 303.414 288.904H309.894C310.182 288.904 310.422 289 310.614 289.192C310.838 289.384 310.934 289.624 310.902 289.912C310.87 291.704 310.47 293.32 309.702 294.76C308.966 296.168 307.926 297.384 306.582 298.408C305.238 299.4 303.67 300.168 301.878 300.712C300.086 301.224 298.134 301.48 296.022 301.48ZM327.229 301.48C324.541 301.48 322.269 301.048 320.413 300.184C318.589 299.32 317.181 298.088 316.189 296.488C315.229 294.856 314.685 292.92 314.557 290.68C314.525 290.04 314.509 289.32 314.509 288.52C314.509 287.688 314.525 286.968 314.557 286.36C314.685 284.088 315.261 282.152 316.285 280.552C317.309 278.952 318.733 277.72 320.557 276.856C322.413 275.992 324.637 275.56 327.229 275.56C329.853 275.56 332.077 275.992 333.901 276.856C335.757 277.72 337.197 278.952 338.221 280.552C339.245 282.152 339.821 284.088 339.949 286.36C339.981 286.968 339.997 287.688 339.997 288.52C339.997 289.32 339.981 290.04 339.949 290.68C339.821 292.92 339.261 294.856 338.269 296.488C337.309 298.088 335.901 299.32 334.045 300.184C332.221 301.048 329.949 301.48 327.229 301.48ZM327.229 295.624C328.669 295.624 329.709 295.192 330.349 294.328C331.021 293.464 331.405 292.168 331.501 290.44C331.533 289.96 331.549 289.32 331.549 288.52C331.549 287.72 331.533 287.08 331.501 286.6C331.405 284.904 331.021 283.624 330.349 282.76C329.709 281.864 328.669 281.416 327.229 281.416C325.821 281.416 324.781 281.864 324.109 282.76C323.437 283.624 323.069 284.904 323.005 286.6C322.973 287.08 322.957 287.72 322.957 288.52C322.957 289.32 322.973 289.96 323.005 290.44C323.069 292.168 323.437 293.464 324.109 294.328C324.781 295.192 325.821 295.624 327.229 295.624ZM345.918 301C345.566 301 345.278 300.888 345.054 300.664C344.83 300.44 344.718 300.152 344.718 299.8V277.24C344.718 276.92 344.83 276.648 345.054 276.424C345.278 276.168 345.566 276.04 345.918 276.04H351.438C351.79 276.04 352.078 276.168 352.302 276.424C352.526 276.648 352.638 276.92 352.638 277.24V279.16C353.502 278.168 354.526 277.4 355.71 276.856C356.926 276.312 358.286 276.04 359.79 276.04H361.902C362.222 276.04 362.494 276.152 362.718 276.376C362.974 276.6 363.102 276.888 363.102 277.24V282.184C363.102 282.504 362.974 282.792 362.718 283.048C362.494 283.272 362.222 283.384 361.902 283.384H357.246C355.934 283.384 354.91 283.752 354.174 284.488C353.47 285.192 353.118 286.2 353.118 287.512V299.8C353.118 300.152 352.99 300.44 352.734 300.664C352.51 300.888 352.222 301 351.87 301H345.918ZM377.847 301.48C374.071 301.48 371.063 300.456 368.823 298.408C366.583 296.36 365.415 293.32 365.319 289.288C365.319 289.064 365.319 288.776 365.319 288.424C365.319 288.072 365.319 287.8 365.319 287.608C365.415 285.08 365.975 282.92 366.999 281.128C368.055 279.304 369.495 277.928 371.319 277C373.175 276.04 375.335 275.56 377.799 275.56C380.615 275.56 382.935 276.12 384.759 277.24C386.615 278.36 388.007 279.88 388.935 281.8C389.863 283.72 390.327 285.912 390.327 288.376V289.528C390.327 289.88 390.199 290.168 389.943 290.392C389.719 290.616 389.447 290.728 389.127 290.728H373.767C373.767 290.76 373.767 290.808 373.767 290.872C373.767 290.936 373.767 291 373.767 291.064C373.799 291.992 373.959 292.84 374.247 293.608C374.535 294.376 374.983 294.984 375.591 295.432C376.199 295.88 376.935 296.104 377.799 296.104C378.439 296.104 378.967 296.008 379.383 295.816C379.831 295.592 380.199 295.352 380.487 295.096C380.775 294.808 380.999 294.568 381.159 294.376C381.447 294.056 381.671 293.864 381.831 293.8C382.023 293.704 382.311 293.656 382.695 293.656H388.647C388.967 293.656 389.223 293.752 389.415 293.944C389.639 294.104 389.735 294.344 389.703 294.664C389.671 295.208 389.399 295.864 388.887 296.632C388.375 297.4 387.623 298.168 386.631 298.936C385.671 299.672 384.455 300.28 382.983 300.76C381.511 301.24 379.799 301.48 377.847 301.48ZM373.767 285.976H381.879V285.88C381.879 284.856 381.719 283.96 381.399 283.192C381.111 282.424 380.647 281.832 380.007 281.416C379.399 281 378.663 280.792 377.799 280.792C376.935 280.792 376.199 281 375.591 281.416C375.015 281.832 374.567 282.424 374.247 283.192C373.927 283.96 373.767 284.856 373.767 285.88V285.976Z" fill="black"/>
</g>
<defs>
<clipPath id="clip0_1401_76">
<rect width="775" height="377" rx="24" fill="white"/>
</clipPath>
</defs>
</svg>
